<svg width="100%" height="100%" viewBox="0 0 760 360" preserveAspectRatio="xMinYMin meet" fill="none" xmlns="http://www.w3.org/2000/svg">
  <g filter="url(#filter0_d_1_11)">
    <path fill-rule="evenodd" clip-rule="evenodd" d="M308.5 36.1045C287.884 47.3044 270.186 63.1971 256.842 82.3491C252.082 89.2703 247.926 96.4791 244.379 103.831C235.158 123.286 230 145.04 230 168C230 250.843 297.157 318 380 318C462.843 318 530 250.843 530 168C530 145.04 524.842 123.286 515.621 103.831C512.074 96.4792 507.918 89.2702 503.158 82.349C489.814 63.197 472.116 47.3043 451.499 36.1045C472.108 55.2759 485 82.6325 485 113C485 170.99 437.99 218 380 218C322.01 218 275 170.99 275 113C275 82.6325 287.892 55.2759 308.5 36.1045ZM380 8C320.405 8 277.085 36.814 250.492 74.0255C243.531 83.6021 237.606 93.9805 232.882 104.996C223.649 125.984 219 147.785 219 167.5C219 226.932 206.509 264.389 186.845 286.966C167.311 309.393 139.928 318 108 318H-0.5V328H108C141.713 328 172.33 318.857 194.386 293.534C210.356 275.198 221.426 248.841 226.261 212.469C245.528 279.199 307.065 328 380 328C452.935 328 514.472 279.199 533.739 212.469C538.574 248.841 549.644 275.198 565.614 293.534C587.67 318.857 618.287 328 652 328H760.5V318H652C627.214 318 605.167 312.813 587.405 300L587.5 300C601.031 300 612 289.031 612 275.5C612 261.969 601.031 251 587.5 251C574.797 251 564.352 260.668 563.121 273.047C549.341 249.958 541 216.066 541 167.5C541 147.785 536.351 125.984 527.118 104.996C522.394 93.9806 516.47 83.6024 509.509 74.0262C482.915 36.8143 439.596 8 380 8ZM418.538 199.858C425.698 191.207 430 180.106 430 168C430 140.386 407.614 118 380 118C352.386 118 330 140.386 330 168C330 180.106 334.302 191.207 341.462 199.858C308.197 185.077 285 151.747 285 113C285 60.5329 327.533 18 380 18C432.467 18 475 60.5329 475 113C475 151.747 451.803 185.077 418.538 199.858ZM380 208C402.091 208 420 190.091 420 168C420 145.909 402.091 128 380 128C357.909 128 340 145.909 340 168C340 190.091 357.909 208 380 208ZM602 275.5C602 283.508 595.508 290 587.5 290C579.492 290 573 283.508 573 275.5C573 267.492 579.492 261 587.5 261C595.508 261 602 267.492 602 275.5Z" fill="white"/>
  </g>
  <defs>
    <filter id="filter0_d_1_11" x="-20.5" y="0" width="801" height="360" filterUnits="userSpaceOnUse" color-interpolation-filters="sRGB">
      <feFlood flood-opacity="0" result="BackgroundImageFix"/>
      <feColorMatrix in="SourceAlpha" type="matrix" values="0 0 0 0 0 0 0 0 0 0 0 0 0 0 0 0 0 0 127 0" result="hardAlpha"/>
      <feOffset dy="12"/>
      <feGaussianBlur stdDeviation="10"/>
      <feComposite in2="hardAlpha" operator="out"/>
      <feColorMatrix type="matrix" values="0 0 0 0 0.613455 0 0 0 0 0.695292 0 0 0 0 0.770833 0 0 0 0.3 0"/>
      <feBlend mode="normal" in2="BackgroundImageFix" result="effect1_dropShadow_1_11"/>
      <feBlend mode="normal" in="SourceGraphic" in2="effect1_dropShadow_1_11" result="shape"/>
    </filter>
  </defs>
</svg>
